<svg width="25" height="25" viewBox="0 0 25 25" fill="none" xmlns="http://www.w3.org/2000/svg">
<path d="M19.5293 0.927734H5.5293C2.76787 0.927734 0.529297 3.16631 0.529297 5.92773V19.9277C0.529297 22.6892 2.76787 24.9277 5.5293 24.9277H19.5293C22.2907 24.9277 24.5293 22.6892 24.5293 19.9277V5.92773C24.5293 3.16631 22.2907 0.927734 19.5293 0.927734Z" fill="#F5F5F5"/>
<path d="M17.3935 8.79224C17.0998 8.47207 16.7422 8.21704 16.3438 8.04359C15.9454 7.87015 15.515 7.78213 15.0805 7.78524C14.4213 7.78224 13.7806 8.00332 13.2635 8.41224C12.9834 8.63147 12.7362 8.88977 12.5295 9.17924C12.3229 8.88975 12.0757 8.63144 11.7955 8.41224C11.2785 8.00332 10.6378 7.78224 9.97854 7.78524C9.5442 7.78227 9.11407 7.87035 8.71586 8.0438C8.31764 8.21724 7.96019 8.4722 7.66654 8.79224C7.0613 9.46993 6.73354 10.3507 6.74854 11.2592C6.77492 12.3066 7.18279 13.3083 7.89554 14.0762C8.77825 15.0499 9.73803 15.9508 10.7655 16.7702C11.1655 17.1092 11.6145 17.4932 12.0825 17.9022C12.2063 18.0105 12.3651 18.0701 12.5295 18.0701C12.694 18.0701 12.8528 18.0105 12.9765 17.9022C13.4445 17.4932 13.8955 17.1082 14.2935 16.7692C15.3211 15.9499 16.2809 15.0489 17.1635 14.0752C17.8763 13.3073 18.2842 12.3056 18.3105 11.2582C18.3262 10.3495 17.9987 9.46828 17.3935 8.79024V8.79224Z" fill="#FF6079"/>
</svg>
